{"glyphs":{":":{"x_min":0,"x_max":230,"ha":230,"o":"m 0 522 l 187 522 l 187 336 l 0 336 z m 0 286 l 187 286 l 187 100 l 0 100 z"},"$":{"x_min":0,"x_max":543,"ha":543,"o":"m 501 90 l 411 0 l 344 0 l 344 -100 l 157 -100 l 157 0 l 0 0 l 0 187 l 157 187 l 157 270 l 90 270 l 0 360 l 0 632 l 90 722 l 157 722 l 157 822 l 344 822 l 344 722 l 501 722 l 501 535 l 344 535 l 344 457 l 411 457 l 501 367 z"},"?":{"x_min":0,"x_max":529,"ha":529,"o":"m 501 355 l 411 265 l 187 265 l 187 216 l 0 216 l 0 452 l 321 452 l 321 535 l 0 535 l 0 722 l 411 722 l 501 632 z m 187 0 l 0 0 l 0 186 l 187 186 z"},"<":{"x_min":0,"x_max":463,"ha":463,"o":"m 430 132 l 298 0 l 0 298 l 298 597 l 430 465 l 264 298 z"},"'":{"x_min":0,"x_max":138,"ha":138,"o":"m 87 586 l 0 586 l 0 772 l 87 772 z"},"=":{"x_min":0,"x_max":463,"ha":463,"o":"m 422 336 l 422 523 l 0 523 l 0 336 z m 422 99 l 422 286 l 0 286 l 0 99 z"},"a":{"x_min":0,"x_max":545,"ha":545,"o":"m 501 0 l 90 0 l 0 90 l 0 317 l 90 407 l 321 407 l 321 435 l 0 435 l 0 622 l 411 622 l 501 532 z m 321 187 l 321 220 l 180 220 l 180 187 z"},"L":{"x_min":0,"x_max":501,"ha":501,"o":"m 0 90 l 90 0 l 501 0 l 501 187 l 187 187 l 187 722 l 0 722 z"},"3":{"x_min":0,"x_max":545,"ha":545,"o":"m 501 90 l 411 0 l 0 0 l 0 187 l 321 187 l 321 269 l 100 269 l 100 455 l 321 455 l 321 535 l 0 535 l 0 722 l 411 722 l 501 632 z"},";":{"x_min":0,"x_max":225,"ha":225,"o":"m 0 522 l 187 522 l 187 336 l 0 336 z m 0 286 l 187 286 l 187 100 l 30 -60 l 0 -60 z"},"J":{"x_min":0,"x_max":431,"ha":431,"o":"m 387 90 l 297 0 l 0 0 l 0 187 l 200 187 l 200 722 l 387 722 z"},"V":{"x_min":0,"x_max":546,"ha":546,"o":"m 501 90 l 411 0 l 90 0 l 0 90 l 0 722 l 180 722 l 180 187 l 321 187 l 321 722 l 501 722 z"},"\"":{"x_min":0,"x_max":415,"ha":415,"o":"m 236 842 l 146 752 l 56 842 l 146 931 z m 445 842 l 355 752 l 266 842 l 355 931 z"},"7":{"x_min":0,"x_max":471,"ha":471,"o":"m 430 535 l 280 0 l 100 0 l 250 535 l 0 535 l 0 723 l 430 722 z"},"S":{"x_min":0,"x_max":542,"ha":542,"o":"m 501 90 l 411 0 l 0 0 l 0 187 l 321 187 l 321 270 l 90 270 l 0 360 l 0 632 l 90 722 l 501 722 l 501 535 l 180 535 l 180 457 l 411 457 l 501 367 z"},"}":{"x_min":0,"x_max":410,"ha":410,"o":"m 376 362 l 287 272 l 287 90 l 197 0 l 0 0 l 0 187 l 100 187 l 100 317 l 145 362 l 100 407 l 100 535 l 0 535 l 0 722 l 197 722 l 287 632 l 287 451 z"},"Z":{"x_min":0,"x_max":542,"ha":542,"o":"m 501 535 l 216 187 l 501 187 l 501 0 l 0 0 l 0 187 l 285 535 l 0 535 l 0 722 l 501 722 z"},"x":{"x_min":0,"x_max":545,"ha":545,"o":"m 501 0 l 321 0 l 321 235 l 187 235 l 187 0 l 0 0 l 0 252 l 90 342 l 0 432 l 0 622 l 187 622 l 187 422 l 314 422 l 314 622 l 501 622 l 501 432 l 411 342 l 501 252 z"},")":{"x_min":0,"x_max":331,"ha":331,"o":"m 287 90 l 197 0 l 0 0 l 0 187 l 100 187 l 100 535 l 0 535 l 0 722 l 197 722 l 287 632 z"},"&":{"x_min":0,"x_max":579,"ha":579,"o":"m 551 267 l 501 267 l 501 90 l 411 0 l 90 0 l 0 90 l 0 632 l 90 722 l 501 722 l 501 535 l 187 535 l 187 454 l 551 454 z m 314 187 l 314 267 l 187 267 l 187 187 z"},"_":{"x_min":0,"x_max":479,"ha":479,"o":"m 422 -187 l 422 0 l 0 0 l 0 -187 z"},"v":{"x_min":0,"x_max":545,"ha":545,"o":"m 501 90 l 411 0 l 90 0 l 0 90 l 0 622 l 180 622 l 180 187 l 321 187 l 321 622 l 501 622 z"},"O":{"x_min":0,"x_max":545,"ha":545,"o":"m 501 90 l 411 0 l 90 0 l 0 90 l 0 632 l 90 722 l 411 722 l 501 632 z m 321 187 l 321 535 l 180 535 l 180 187 z"},"(":{"x_min":0,"x_max":327,"ha":327,"o":"m 287 0 l 90 0 l 0 90 l 0 632 l 90 722 l 287 722 l 287 535 l 187 535 l 187 187 l 287 187 z"},"C":{"x_min":0,"x_max":514,"ha":514,"o":"m 501 0 l 90 0 l 0 90 l 0 632 l 90 722 l 501 722 l 501 535 l 180 535 l 180 187 l 501 187 z"},"W":{"x_min":0,"x_max":680,"ha":680,"o":"m 635 90 l 546 0 l 407 0 l 318 90 l 228 0 l 90 0 l 0 90 l 0 722 l 180 722 l 180 187 l 224 187 l 224 487 l 318 587 l 411 487 l 411 187 l 455 187 l 455 722 l 635 722 z"},"A":{"x_min":0,"x_max":546,"ha":546,"o":"m 501 0 l 314 0 l 314 227 l 187 227 l 187 0 l 0 0 l 0 632 l 90 722 l 411 722 l 501 632 z m 314 414 l 314 535 l 187 535 l 187 414 z"},"f":{"x_min":0,"x_max":421,"ha":421,"o":"m 401 535 l 187 535 l 187 414 l 322 414 l 322 227 l 187 227 l 187 0 l 0 0 l 0 632 l 90 722 l 401 722 z"},"Q":{"x_min":0,"x_max":545,"ha":545,"o":"m 501 90 l 411 0 l 344 0 l 344 -100 l 157 -100 l 157 0 l 90 0 l 0 90 l 0 632 l 90 722 l 411 722 l 501 632 z m 321 187 l 321 535 l 180 535 l 180 187 z"},"w":{"x_min":0,"x_max":680,"ha":680,"o":"m 635 90 l 546 0 l 90 0 l 0 90 l 0 622 l 180 622 l 180 187 l 224 187 l 224 622 l 411 622 l 411 187 l 455 187 l 455 622 l 635 622 z"},"-":{"x_min":0,"x_max":470,"ha":470,"o":"m 422 227 l 422 414 l 0 414 l 0 227 z"},"E":{"x_min":0,"x_max":529,"ha":529,"o":"m 501 0 l 90 0 l 0 90 l 0 632 l 90 722 l 501 722 l 501 535 l 187 535 l 187 454 l 422 454 l 422 267 l 187 267 l 187 187 l 501 187 z"},"s":{"x_min":0,"x_max":545,"ha":545,"o":"m 501 90 l 411 0 l 0 0 l 0 187 l 321 187 l 321 220 l 90 220 l 0 310 l 0 532 l 90 622 l 501 622 l 501 435 l 180 435 l 180 407 l 411 407 l 501 317 z"},">":{"x_min":0,"x_max":466,"ha":466,"o":"m 0 132 l 132 0 l 430 298 l 132 597 l 0 465 l 166 298 z"},"l":{"x_min":0,"x_max":232,"ha":232,"o":"m 0 722 l 187 722 l 187 0 l 0 0 z"},"8":{"x_min":0,"x_max":543,"ha":543,"o":"m 501 90 l 411 0 l 90 0 l 0 90 l 0 292 l 75 362 l 0 432 l 0 632 l 90 722 l 411 722 l 501 632 l 501 432 l 436 362 l 501 292 z m 321 488 l 321 572 l 180 572 l 180 488 z m 321 150 l 321 234 l 180 234 l 180 150 z"},"\\":{"x_min":0,"x_max":491,"ha":491,"o":"m 477 0 l 290 0 l 0 622 l 187 622 z"},"e":{"x_min":0,"x_max":544,"ha":544,"o":"m 501 0 l 90 0 l 0 90 l 0 532 l 90 622 l 411 622 l 501 532 l 501 305 l 411 215 l 180 215 l 180 187 l 501 187 z m 321 402 l 321 435 l 180 435 l 180 402 z"},"b":{"x_min":0,"x_max":543,"ha":543,"o":"m 501 90 l 411 0 l 0 0 l 0 722 l 187 722 l 187 622 l 411 622 l 501 532 z m 321 187 l 321 435 l 187 435 l 187 187 z"},"%":{"x_min":0,"x_max":682,"ha":682,"o":"m 642 90 l 553 0 l 331 0 l 288 43 l 268 0 l 81 0 l 175 200 l 90 200 l 0 290 l 0 532 l 90 622 l 311 622 l 352 581 l 371 622 l 558 622 l 465 422 l 553 422 l 642 332 z m 462 187 l 462 235 l 421 235 l 421 187 z m 221 387 l 221 435 l 180 435 l 180 387 z"},"m":{"x_min":0,"x_max":680,"ha":680,"o":"m 635 0 l 455 0 l 455 435 l 411 435 l 411 0 l 224 0 l 224 435 l 180 435 l 180 0 l 0 0 l 0 622 l 546 622 l 635 532 z"},"#":{"x_min":0,"x_max":758,"ha":758,"o":"m 722 100 l 611 100 l 611 0 l 424 0 l 424 100 l 298 100 l 298 0 l 111 0 l 111 100 l 0 100 l 0 287 l 111 287 l 111 413 l 0 413 l 0 600 l 111 600 l 111 722 l 298 722 l 298 600 l 424 600 l 424 722 l 611 722 l 611 600 l 722 600 l 722 413 l 611 413 l 611 287 l 722 287 z m 424 287 l 424 413 l 298 413 l 298 287 z"},",":{"x_min":0,"x_max":232,"ha":232,"o":"m 0 186 l 187 186 l 187 0 l 30 -160 l 0 -160 z"},"n":{"x_min":0,"x_max":545,"ha":545,"o":"m 501 0 l 321 0 l 321 435 l 180 435 l 180 0 l 0 0 l 0 622 l 411 622 l 501 532 z"},"h":{"x_min":0,"x_max":543,"ha":543,"o":"m 501 0 l 321 0 l 321 435 l 187 435 l 187 0 l 0 0 l 0 722 l 187 722 l 187 622 l 411 622 l 501 532 z"},"z":{"x_min":0,"x_max":541,"ha":541,"o":"m 501 435 l 256 187 l 501 187 l 501 0 l 0 0 l 0 187 l 245 435 l 0 435 l 0 622 l 501 622 z"},"B":{"x_min":0,"x_max":543,"ha":543,"o":"m 501 90 l 411 0 l 0 0 l 0 722 l 411 722 l 501 632 l 501 432 l 411 342 l 501 252 z m 318 487 l 318 535 l 183 535 l 183 487 z m 318 187 l 318 235 l 183 235 l 183 187 z"},"K":{"x_min":0,"x_max":545,"ha":545,"o":"m 501 0 l 321 0 l 321 235 l 187 235 l 187 0 l 0 0 l 0 722 l 187 722 l 187 422 l 314 422 l 314 722 l 501 722 l 501 432 l 411 342 l 501 252 z"},"R":{"x_min":0,"x_max":545,"ha":545,"o":"m 501 0 l 318 0 l 318 235 l 183 235 l 183 0 l 0 0 l 0 722 l 411 722 l 501 632 l 501 432 l 411 342 l 501 252 z m 318 487 l 318 535 l 183 535 l 183 487 z"},"T":{"x_min":0,"x_max":522,"ha":522,"o":"m 501 535 l 344 535 l 344 0 l 157 0 l 157 535 l 0 535 l 0 722 l 501 722 z"},"P":{"x_min":0,"x_max":542,"ha":542,"o":"m 0 722 l 411 722 l 501 632 l 501 190 l 411 100 l 187 100 l 187 0 l 0 0 z m 187 535 l 187 287 l 321 287 l 321 535 z"},"|":{"x_min":0,"x_max":232,"ha":232,"o":"m 0 822 l 187 822 l 187 -100 l 0 -100 z"},"t":{"x_min":0,"x_max":520,"ha":520,"o":"m 501 187 l 187 187 l 187 308 l 422 308 l 422 495 l 187 495 l 187 722 l 0 722 l 0 90 l 90 0 l 501 0 z"},"M":{"x_min":0,"x_max":680,"ha":680,"o":"m 635 0 l 455 0 l 455 535 l 411 535 l 411 0 l 224 0 l 224 535 l 180 535 l 180 0 l 0 0 l 0 722 l 546 722 l 635 632 z"},"g":{"x_min":0,"x_max":546,"ha":546,"o":"m 501 -125 l 411 -215 l 0 -215 l 0 -28 l 314 -28 l 314 0 l 90 0 l 0 90 l 0 532 l 90 622 l 501 622 z m 314 187 l 314 435 l 180 435 l 180 187 z"},"j":{"x_min":0,"x_max":232,"ha":232,"o":"m 187 -125 l 97 -215 l -200 -215 l -200 -28 l 0 -28 l 0 622 l 187 622 z"},"i":{"x_min":0,"x_max":232,"ha":232,"o":"m 0 622 l 187 622 l 187 0 l 0 0 z"},"y":{"x_min":0,"x_max":546,"ha":546,"o":"m 0 622 l 0 90 l 90 0 l 314 0 l 314 -28 l 0 -28 l 0 -215 l 411 -215 l 501 -125 l 501 622 l 314 622 l 314 187 l 180 187 l 180 622 z"},".":{"x_min":0,"x_max":241,"ha":241,"o":"m 0 186 l 187 186 l 187 0 l 0 0 z"},"p":{"x_min":0,"x_max":545,"ha":545,"o":"m 0 622 l 411 622 l 501 532 l 501 90 l 411 0 l 187 0 l 187 -100 l 0 -100 z m 187 435 l 187 187 l 321 187 l 321 435 z"},"X":{"x_min":0,"x_max":545,"ha":545,"o":"m 501 0 l 314 0 l 314 300 l 187 300 l 187 0 l 0 0 l 0 290 l 90 380 l 0 470 l 0 722 l 187 722 l 187 487 l 321 487 l 321 722 l 501 722 l 501 470 l 411 380 l 501 290 z"},"*":{"x_min":0,"x_max":464,"ha":464,"o":"m 357 203 l 221 302 l 84 203 l 137 363 l 0 462 l 169 462 l 221 622 l 272 462 l 441 462 l 304 363 z"},"Y":{"x_min":0,"x_max":531,"ha":531,"o":"m 344 0 l 157 0 l 157 330 l 90 330 l 0 420 l 0 722 l 187 722 l 187 487 l 321 487 l 321 722 l 501 722 l 501 420 l 411 330 l 344 330 z"},"c":{"x_min":0,"x_max":522,"ha":522,"o":"m 501 0 l 90 0 l 0 90 l 0 532 l 90 622 l 501 622 l 501 435 l 180 435 l 180 187 l 501 187 z"},"!":{"x_min":0,"x_max":231,"ha":231,"o":"m 0 722 l 187 722 l 187 216 l 0 216 z m 0 186 l 187 186 l 187 0 l 0 0 z"},"/":{"x_min":0,"x_max":490,"ha":490,"o":"m 290 622 l 477 622 l 187 0 l 0 0 z"},"[":{"x_min":0,"x_max":327,"ha":327,"o":"m 287 0 l 0 0 l 0 722 l 287 722 l 287 535 l 187 535 l 187 187 l 287 187 z"},"6":{"x_min":0,"x_max":542,"ha":542,"o":"m 501 90 l 411 0 l 90 0 l 0 90 l 0 622 l 90 722 l 501 722 l 501 535 l 180 535 l 180 457 l 411 457 l 501 367 z m 321 187 l 321 270 l 180 270 l 180 187 z"},"r":{"x_min":0,"x_max":503,"ha":503,"o":"m 501 435 l 180 435 l 180 0 l 0 0 l 0 532 l 90 622 l 501 622 z"},"2":{"x_min":0,"x_max":542,"ha":542,"o":"m 501 0 l 0 0 l 0 452 l 321 452 l 321 535 l 0 535 l 0 722 l 411 722 l 501 632 l 501 355 l 411 265 l 180 265 l 180 187 l 501 187 z"},"{":{"x_min":0,"x_max":416,"ha":416,"o":"m 376 0 l 179 0 l 90 90 l 90 272 l 0 362 l 90 451 l 90 632 l 179 722 l 376 722 l 376 535 l 276 535 l 276 407 l 231 362 l 276 317 l 276 187 l 376 187 z"},"9":{"x_min":0,"x_max":545,"ha":545,"o":"m 501 90 l 411 0 l 0 0 l 0 187 l 321 187 l 321 265 l 90 265 l 0 355 l 0 622 l 90 712 l 411 712 l 501 622 z m 321 452 l 321 525 l 180 525 l 180 452 z"}," ":{"x_min":0,"x_max":400,"ha":400,"o":""},"I":{"x_min":0,"x_max":232,"ha":232,"o":"m 0 722 l 187 722 l 187 0 l 0 0 z"},"H":{"x_min":0,"x_max":546,"ha":546,"o":"m 501 0 l 321 0 l 321 235 l 187 235 l 187 0 l 0 0 l 0 722 l 187 722 l 187 422 l 314 422 l 314 722 l 501 722 z"},"4":{"x_min":0,"x_max":546,"ha":546,"o":"m 501 0 l 321 0 l 321 287 l 90 287 l 0 376 l 0 722 l 187 722 l 187 473 l 321 473 l 321 722 l 501 722 z"},"~":{"x_min":0,"x_max":440,"ha":440,"o":"m 471 974 q 470 924 460 873 q 449 810 432 793 q 395 753 335 753 q 311 753 274 764 q 229 777 206 797 q 177 821 145 821 q 122 821 109 752 l 0 752 q 7 900 41 936 q 75 971 133 971 q 158 971 197 960 q 244 947 269 928 q 299 904 334 904 q 354 904 361 974 z"},"D":{"x_min":0,"x_max":545,"ha":545,"o":"m 501 90 l 411 0 l 0 0 l 0 722 l 411 722 l 501 632 z m 321 187 l 321 535 l 187 535 l 187 187 z"},"^":{"x_min":0,"x_max":631,"ha":631,"o":"m 597 524 l 465 392 l 298 558 l 132 392 l 0 524 l 298 822 z"},"0":{"x_min":0,"x_max":545,"ha":545,"o":"m 501 90 l 411 0 l 90 0 l 0 90 l 0 632 l 90 722 l 411 722 l 501 632 z m 321 187 l 321 535 l 180 535 l 180 187 z"},"F":{"x_min":0,"x_max":512,"ha":512,"o":"m 501 535 l 187 535 l 187 414 l 422 414 l 422 227 l 187 227 l 187 0 l 0 0 l 0 632 l 90 722 l 501 722 z"},"`":{"x_min":0,"x_max":213,"ha":213,"o":"m 87 586 l 173 586 l 87 772 l 0 772 z"},"k":{"x_min":0,"x_max":543,"ha":543,"o":"m 501 0 l 321 0 l 321 235 l 187 235 l 187 0 l 0 0 l 0 722 l 187 722 l 187 422 l 314 422 l 314 622 l 501 622 l 501 432 l 411 342 l 501 252 z"},"u":{"x_min":0,"x_max":545,"ha":545,"o":"m 501 622 l 321 622 l 321 187 l 180 187 l 180 622 l 0 622 l 0 0 l 411 0 l 501 90 z"},"]":{"x_min":0,"x_max":332,"ha":332,"o":"m 287 0 l 0 0 l 0 187 l 100 187 l 100 535 l 0 535 l 0 722 l 287 722 z"},"U":{"x_min":0,"x_max":546,"ha":546,"o":"m 501 722 l 321 722 l 321 187 l 180 187 l 180 722 l 0 722 l 0 0 l 411 0 l 501 90 z"},"o":{"x_min":0,"x_max":545,"ha":545,"o":"m 501 90 l 411 0 l 90 0 l 0 90 l 0 532 l 90 622 l 411 622 l 501 532 z m 321 187 l 321 435 l 180 435 l 180 187 z"},"N":{"x_min":0,"x_max":546,"ha":546,"o":"m 187 0 l 0 0 l 0 722 l 187 722 l 314 429 l 314 722 l 501 722 l 501 0 l 314 0 l 187 293 z"},"+":{"x_min":0,"x_max":451,"ha":451,"o":"m 304 107 l 118 107 l 118 227 l 0 227 l 0 414 l 118 414 l 118 529 l 304 529 l 304 414 l 422 414 l 422 227 l 304 227 z"},"G":{"x_min":0,"x_max":543,"ha":543,"o":"m 501 90 l 411 0 l 90 0 l 0 90 l 0 632 l 90 722 l 501 722 l 501 535 l 180 535 l 180 187 l 321 187 l 321 226 l 221 226 l 221 413 l 501 413 z"},"q":{"x_min":0,"x_max":546,"ha":546,"o":"m 501 622 l 90 622 l 0 532 l 0 90 l 90 0 l 314 0 l 314 -100 l 501 -100 z m 314 435 l 314 187 l 180 187 l 180 435 z"},"d":{"x_min":0,"x_max":547,"ha":547,"o":"m 501 0 l 90 0 l 0 90 l 0 532 l 90 622 l 314 622 l 314 722 l 501 722 z m 314 187 l 314 435 l 180 435 l 180 187 z"},"1":{"x_min":0,"x_max":321,"ha":321,"o":"m 276 0 l 90 0 l 90 530 l 0 531 l 176 722 l 276 722 z"},"5":{"x_min":0,"x_max":542,"ha":542,"o":"m 501 90 l 411 0 l 0 0 l 0 187 l 321 187 l 321 270 l 0 270 l 0 722 l 501 722 l 501 535 l 180 535 l 180 457 l 411 457 l 501 367 z"}}}
